<mxfile host="Electron" modified="2024-05-13T11:02:11.437Z" agent="Mozilla/5.0 (Windows NT 10.0; Win64; x64) AppleWebKit/537.36 (KHTML, like Gecko) draw.io/24.2.5 Chrome/120.0.6099.109 Electron/28.1.0 Safari/537.36" etag="Vpt61rEgqwtmDas0eczz" version="24.2.5" type="device">
  <diagram name="Page-1" id="sQSzlT0UaLFm5AQuz467">
    <mxGraphModel dx="1050" dy="621" grid="1" gridSize="10" guides="1" tooltips="1" connect="1" arrows="1" fold="1" page="1" pageScale="1" pageWidth="827" pageHeight="1169" math="0" shadow="0">
      <root>
        <mxCell id="0" />
        <mxCell id="1" parent="0" />
        <mxCell id="YVQ3VSHgBeVHruhjQxVy-1" value="LOAD_MAT1" style="ellipse;whiteSpace=wrap;html=1;aspect=fixed;" vertex="1" parent="1">
          <mxGeometry y="680" width="80" height="80" as="geometry" />
        </mxCell>
        <mxCell id="YVQ3VSHgBeVHruhjQxVy-2" value="LOAD_MAT2" style="ellipse;whiteSpace=wrap;html=1;aspect=fixed;" vertex="1" parent="1">
          <mxGeometry x="240" y="680" width="80" height="80" as="geometry" />
        </mxCell>
        <mxCell id="YVQ3VSHgBeVHruhjQxVy-3" value="" style="endArrow=classic;html=1;rounded=0;exitX=1;exitY=0.5;exitDx=0;exitDy=0;entryX=0;entryY=0.5;entryDx=0;entryDy=0;" edge="1" parent="1" target="YVQ3VSHgBeVHruhjQxVy-2" source="YVQ3VSHgBeVHruhjQxVy-1">
          <mxGeometry width="50" height="50" relative="1" as="geometry">
            <mxPoint x="120" y="715" as="sourcePoint" />
            <mxPoint x="340" y="745" as="targetPoint" />
          </mxGeometry>
        </mxCell>
        <mxCell id="YVQ3VSHgBeVHruhjQxVy-7" style="edgeStyle=orthogonalEdgeStyle;rounded=0;orthogonalLoop=1;jettySize=auto;html=1;exitX=0.5;exitY=1;exitDx=0;exitDy=0;entryX=0.5;entryY=1;entryDx=0;entryDy=0;" edge="1" parent="1" source="YVQ3VSHgBeVHruhjQxVy-35" target="YVQ3VSHgBeVHruhjQxVy-1">
          <mxGeometry relative="1" as="geometry">
            <Array as="points">
              <mxPoint x="770" y="1080" />
              <mxPoint x="40" y="1080" />
            </Array>
          </mxGeometry>
        </mxCell>
        <mxCell id="YVQ3VSHgBeVHruhjQxVy-12" value="" style="curved=1;endArrow=classic;html=1;rounded=0;exitX=0.5;exitY=0;exitDx=0;exitDy=0;entryX=0.946;entryY=0.19;entryDx=0;entryDy=0;entryPerimeter=0;strokeColor=default;flowAnimation=0;" edge="1" parent="1" source="YVQ3VSHgBeVHruhjQxVy-1" target="YVQ3VSHgBeVHruhjQxVy-1">
          <mxGeometry width="50" height="50" relative="1" as="geometry">
            <mxPoint x="50" y="674" as="sourcePoint" />
            <mxPoint x="100" y="624" as="targetPoint" />
            <Array as="points">
              <mxPoint x="50" y="634" />
              <mxPoint x="100" y="624" />
              <mxPoint x="110" y="664" />
            </Array>
          </mxGeometry>
        </mxCell>
        <mxCell id="YVQ3VSHgBeVHruhjQxVy-13" value="" style="curved=1;endArrow=classic;html=1;rounded=0;exitX=0.5;exitY=0;exitDx=0;exitDy=0;entryX=0.946;entryY=0.19;entryDx=0;entryDy=0;entryPerimeter=0;strokeColor=default;flowAnimation=0;" edge="1" parent="1">
          <mxGeometry width="50" height="50" relative="1" as="geometry">
            <mxPoint x="280" y="677" as="sourcePoint" />
            <mxPoint x="316" y="692" as="targetPoint" />
            <Array as="points">
              <mxPoint x="290" y="636" />
              <mxPoint x="340" y="626" />
              <mxPoint x="350" y="666" />
            </Array>
          </mxGeometry>
        </mxCell>
        <mxCell id="YVQ3VSHgBeVHruhjQxVy-14" value="&lt;font style=&quot;font-size: 14px;&quot;&gt;row_end = 1&lt;/font&gt;" style="text;html=1;align=center;verticalAlign=middle;whiteSpace=wrap;rounded=0;" vertex="1" parent="1">
          <mxGeometry x="120" y="680" width="80" height="30" as="geometry" />
        </mxCell>
        <mxCell id="YVQ3VSHgBeVHruhjQxVy-15" value="&lt;font style=&quot;font-size: 14px;&quot;&gt;row_end = 0&lt;/font&gt;" style="text;html=1;align=center;verticalAlign=middle;whiteSpace=wrap;rounded=0;" vertex="1" parent="1">
          <mxGeometry x="50" y="596" width="80" height="30" as="geometry" />
        </mxCell>
        <mxCell id="YVQ3VSHgBeVHruhjQxVy-16" value="&lt;font style=&quot;font-size: 14px;&quot;&gt;row_end = 0&lt;/font&gt;" style="text;html=1;align=center;verticalAlign=middle;whiteSpace=wrap;rounded=0;" vertex="1" parent="1">
          <mxGeometry x="280" y="596" width="80" height="30" as="geometry" />
        </mxCell>
        <mxCell id="YVQ3VSHgBeVHruhjQxVy-18" value="&lt;font style=&quot;font-size: 14px;&quot;&gt;Mat1_Col != Mat2_Row&amp;nbsp;&lt;br&gt;||&amp;nbsp;&lt;/font&gt;&lt;span style=&quot;font-size: 14px;&quot;&gt;Multiplication end&lt;/span&gt;" style="text;html=1;align=center;verticalAlign=middle;whiteSpace=wrap;rounded=0;" vertex="1" parent="1">
          <mxGeometry x="550" y="680" width="214" height="30" as="geometry" />
        </mxCell>
        <mxCell id="YVQ3VSHgBeVHruhjQxVy-26" value="" style="endArrow=classic;html=1;rounded=0;exitX=1;exitY=0.5;exitDx=0;exitDy=0;entryX=0;entryY=0.5;entryDx=0;entryDy=0;" edge="1" parent="1" source="YVQ3VSHgBeVHruhjQxVy-2" target="YVQ3VSHgBeVHruhjQxVy-8">
          <mxGeometry width="50" height="50" relative="1" as="geometry">
            <mxPoint x="320" y="714.58" as="sourcePoint" />
            <mxPoint x="440" y="714.58" as="targetPoint" />
          </mxGeometry>
        </mxCell>
        <mxCell id="YVQ3VSHgBeVHruhjQxVy-30" value="" style="curved=1;endArrow=classic;html=1;rounded=0;exitX=0.5;exitY=0;exitDx=0;exitDy=0;entryX=0.946;entryY=0.19;entryDx=0;entryDy=0;entryPerimeter=0;strokeColor=default;flowAnimation=0;" edge="1" parent="1">
          <mxGeometry width="50" height="50" relative="1" as="geometry">
            <mxPoint x="520" y="677" as="sourcePoint" />
            <mxPoint x="556" y="692" as="targetPoint" />
            <Array as="points">
              <mxPoint x="530" y="636" />
              <mxPoint x="580" y="626" />
              <mxPoint x="590" y="666" />
            </Array>
          </mxGeometry>
        </mxCell>
        <mxCell id="YVQ3VSHgBeVHruhjQxVy-34" value="" style="endArrow=classic;html=1;rounded=0;exitX=1;exitY=0.5;exitDx=0;exitDy=0;entryX=0;entryY=0.5;entryDx=0;entryDy=0;" edge="1" parent="1" source="YVQ3VSHgBeVHruhjQxVy-8" target="YVQ3VSHgBeVHruhjQxVy-35">
          <mxGeometry width="50" height="50" relative="1" as="geometry">
            <mxPoint x="506" y="715.5" as="sourcePoint" />
            <mxPoint x="612" y="715.92" as="targetPoint" />
          </mxGeometry>
        </mxCell>
        <mxCell id="YVQ3VSHgBeVHruhjQxVy-35" value="DONE" style="ellipse;whiteSpace=wrap;html=1;aspect=fixed;" vertex="1" parent="1">
          <mxGeometry x="730" y="680" width="80" height="80" as="geometry" />
        </mxCell>
        <mxCell id="YVQ3VSHgBeVHruhjQxVy-36" value="" style="endArrow=classic;html=1;rounded=0;exitX=1;exitY=0.5;exitDx=0;exitDy=0;entryX=0;entryY=0.5;entryDx=0;entryDy=0;" edge="1" parent="1" target="YVQ3VSHgBeVHruhjQxVy-8">
          <mxGeometry width="50" height="50" relative="1" as="geometry">
            <mxPoint x="506" y="715.5" as="sourcePoint" />
            <mxPoint x="710" y="716" as="targetPoint" />
          </mxGeometry>
        </mxCell>
        <mxCell id="YVQ3VSHgBeVHruhjQxVy-8" value="MAT_MUL" style="ellipse;whiteSpace=wrap;html=1;aspect=fixed;" vertex="1" parent="1">
          <mxGeometry x="480" y="680" width="80" height="80" as="geometry" />
        </mxCell>
        <mxCell id="YVQ3VSHgBeVHruhjQxVy-38" value="VALIDATION" style="ellipse;whiteSpace=wrap;html=1;aspect=fixed;" vertex="1" parent="1">
          <mxGeometry x="480" y="920" width="80" height="80" as="geometry" />
        </mxCell>
        <mxCell id="YVQ3VSHgBeVHruhjQxVy-39" value="" style="endArrow=classic;html=1;rounded=0;exitX=1;exitY=0;exitDx=0;exitDy=0;entryX=1;entryY=1;entryDx=0;entryDy=0;" edge="1" parent="1" source="YVQ3VSHgBeVHruhjQxVy-38" target="YVQ3VSHgBeVHruhjQxVy-8">
          <mxGeometry width="50" height="50" relative="1" as="geometry">
            <mxPoint x="505" y="850" as="sourcePoint" />
            <mxPoint x="665" y="850" as="targetPoint" />
          </mxGeometry>
        </mxCell>
        <mxCell id="YVQ3VSHgBeVHruhjQxVy-40" value="" style="endArrow=classic;html=1;rounded=0;exitX=0;exitY=1;exitDx=0;exitDy=0;entryX=0;entryY=0;entryDx=0;entryDy=0;" edge="1" parent="1" source="YVQ3VSHgBeVHruhjQxVy-8" target="YVQ3VSHgBeVHruhjQxVy-38">
          <mxGeometry width="50" height="50" relative="1" as="geometry">
            <mxPoint x="558" y="942" as="sourcePoint" />
            <mxPoint x="558" y="758" as="targetPoint" />
          </mxGeometry>
        </mxCell>
        <mxCell id="YVQ3VSHgBeVHruhjQxVy-43" value="&lt;font style=&quot;font-size: 14px;&quot;&gt;Mat1_Cur_Col == Mat1_Col - 1&amp;nbsp;&lt;br&gt;&amp;amp;&amp;amp;&amp;nbsp;&lt;/font&gt;&lt;span style=&quot;font-size: 14px;&quot;&gt;Multiplication not end&lt;/span&gt;" style="text;html=1;align=center;verticalAlign=middle;whiteSpace=wrap;rounded=0;" vertex="1" parent="1">
          <mxGeometry x="280" y="840" width="214" height="30" as="geometry" />
        </mxCell>
        <mxCell id="YVQ3VSHgBeVHruhjQxVy-44" value="&lt;font style=&quot;font-size: 14px;&quot;&gt;Mat1_Cur_Col != Mat1_Col - 1&amp;nbsp;&lt;br&gt;&amp;amp;&amp;amp;&amp;nbsp;&lt;/font&gt;&lt;span style=&quot;font-size: 14px;&quot;&gt;Multiplication not end&lt;/span&gt;" style="text;html=1;align=center;verticalAlign=middle;whiteSpace=wrap;rounded=0;" vertex="1" parent="1">
          <mxGeometry x="480" y="585" width="214" height="30" as="geometry" />
        </mxCell>
      </root>
    </mxGraphModel>
  </diagram>
</mxfile>
